# xmcd
#
# Track frame offsets:
#	150
#	17552
#	29607
#	46540
#	58717
#	69855
#	85545
#	98382
#	112295
#	127507
#	141995
#	158227
#	170672
#	183182
#	200215
#	220195
#	232830
#	249017
#	261855
#	279307
#
# Disc length: 3750
#
# Revision: 1
# Processed by: cddbd v1.5.1PL0 Copyright (c) Steve Scherf et al.
# Submitted via: VisiTrax 2.9.5.180 - For more info visit www.synapsa.com
# Normalized: r0:DSETVAR1
#
DISCID=030ea414
DTITLE=Various Artist - CDX 87 July 1994
DYEAR=1994
DGENRE=
TTITLE0=Marc Beeson - A wing and a prayer
TTITLE1=Kimber Clayton - Bless his heart
TTITLE2=Nitty Gritty Dirt Band - Cupid's got a gun
TTITLE3=Tim McGraw - Down on the farm
TTITLE4=Johnny Cash - Drive on
TTITLE5=Brother Phelps - Ever changing woman
TTITLE6=Daved Lee Murphy - Fish ain't biting
TTITLE7=Lisa Brokop - Give me a ring sometime
TTITLE8=John and Audrey Wiggins - Has anybody seen Amy
TTITLE9=Chris LeDoux - Honky tonk world
TTITLE10=Daron Norwood - If I ever love again
TTITLE11=Patty Loveless - I try to think about Elvis
TTITLE12=Ken Mellons - Jukebox junkie
TTITLE13=Mark Chesnutt - She dreams
TTITLE14=Reba McEntire - She thinks his name was John
TTITLE15=Pam Tillis - When you walk in the room
TTITLE16=Toby Keith - Who's that man
TTITLE17=Trisha Yearwood - XXX's and OOO's
TTITLE18=Alan taylor - Black and white
TTITLE19=John Anderson - Boating safety
EXTD=
EXTT0=
EXTT1=
EXTT2=
EXTT3=
EXTT4=
EXTT5=
EXTT6=
EXTT7=
EXTT8=
EXTT9=
EXTT10=
EXTT11=
EXTT12=
EXTT13=
EXTT14=
EXTT15=
EXTT16=
EXTT17=
EXTT18=
EXTT19=
PLAYORDER=
